<?xml version="1.0" encoding="utf-8"?>
<!-- Generator: Adobe Illustrator 24.1.0, SVG Export Plug-In . SVG Version: 6.00 Build 0)  -->
<svg version="1.1" id="Layer_1" xmlns="http://www.w3.org/2000/svg" xmlns:xlink="http://www.w3.org/1999/xlink" x="0px" y="0px"
	 viewBox="0 0 64.3 64.3" style="enable-background:new 0 0 64.3 64.3;" xml:space="preserve">
<style type="text/css">
	.st0{fill:#FFFFFF;}
</style>
<path id="facebook-square" class="st0" d="M64.3,6.9v50.5c0,3.8-3.1,6.9-6.9,6.9H45.2V38.9h8.7l1.2-9.7h-9.9V23
	c0-2.8,0.8-4.7,4.8-4.7h5.1V9.6c-2.5-0.3-5-0.4-7.5-0.4c-7.4,0-12.5,4.5-12.5,12.8v7.2h-8.7v9.7h8.7v25.4H6.9
	c-3.8,0-6.9-3.1-6.9-6.9V6.9C0,3.1,3.1,0,6.9,0h50.5C61.2,0,64.3,3.1,64.3,6.9z"/>
</svg>
