<?xml version="1.0" encoding="utf-8"?>
<!-- Generator: Adobe Illustrator 24.1.0, SVG Export Plug-In . SVG Version: 6.00 Build 0)  -->
<svg version="1.1" id="Layer_1" xmlns="http://www.w3.org/2000/svg" xmlns:xlink="http://www.w3.org/1999/xlink" x="0px" y="0px"
	 viewBox="0 0 67 67" style="enable-background:new 0 0 67 67;" xml:space="preserve">
<style type="text/css">
	.st0{fill:#FFFFFF;}
</style>
<path id="instagram" class="st0" d="M33.5,16.3c-9.5,0-17.2,7.7-17.2,17.2S24,50.7,33.5,50.7c9.5,0,17.2-7.7,17.2-17.2
	C50.7,24,43,16.3,33.5,16.3C33.6,16.3,33.5,16.3,33.5,16.3z M33.5,44.7c-6.2,0-11.2-5-11.2-11.2s5-11.2,11.2-11.2
	c6.2,0,11.2,5,11.2,11.2c0,0,0,0,0,0C44.7,39.7,39.7,44.7,33.5,44.7L33.5,44.7z M55.4,15.6c0,2.2-1.8,4-4,4s-4-1.8-4-4s1.8-4,4-4
	l0,0C53.6,11.6,55.4,13.4,55.4,15.6C55.4,15.6,55.4,15.6,55.4,15.6z M66.8,19.7c-0.3-5.4-1.5-10.1-5.4-14s-8.7-5.1-14-5.4
	c-5.5-0.3-22.1-0.3-27.6,0c-5.4,0.3-10.1,1.5-14,5.4s-5.1,8.7-5.4,14c-0.3,5.5-0.3,22.1,0,27.6c0.3,5.4,1.5,10.1,5.4,14
	s8.7,5.1,14,5.4c5.5,0.3,22.1,0.3,27.6,0c5.4-0.3,10.1-1.5,14-5.4s5.1-8.7,5.4-14C67.1,41.8,67.1,25.2,66.8,19.7L66.8,19.7z
	 M59.6,53.2c-1.1,2.9-3.5,5.2-6.4,6.4C48.9,61.4,38.4,61,33.5,61s-15.4,0.4-19.8-1.3c-2.9-1.1-5.2-3.5-6.4-6.4
	c-1.7-4.4-1.3-14.9-1.3-19.7S5.7,18.1,7.4,13.8c1.1-2.9,3.5-5.2,6.4-6.4C18.2,5.6,28.6,6,33.5,6s15.4-0.4,19.8,1.3
	c2.9,1.1,5.2,3.5,6.4,6.4c1.7,4.4,1.3,14.9,1.3,19.8S61.4,48.9,59.6,53.2z"/>
</svg>
