<svg xmlns="http://www.w3.org/2000/svg" width="63.414" height="63.414" viewBox="0 0 63.414 63.414">
  <path id="snapchat-square" d="M56.62,32H6.794A6.8,6.8,0,0,0,0,38.794V88.62a6.8,6.8,0,0,0,6.794,6.794H56.62a6.8,6.8,0,0,0,6.794-6.794V38.794A6.8,6.8,0,0,0,56.62,32ZM55.7,76.574c-.5,1.147-2.562,1.982-6.341,2.576A17.393,17.393,0,0,0,48.75,81.4a1.09,1.09,0,0,1-1.147.835h-.028c-.878,0-1.812-.41-3.652-.41-2.491,0-3.355.566-5.294,1.939-2.052,1.458-4.02,2.7-6.964,2.576-2.973.226-5.464-1.585-6.865-2.576-1.953-1.373-2.8-1.939-5.294-1.939a36.082,36.082,0,0,0-3.652.439,1.124,1.124,0,0,1-1.175-.849,17.769,17.769,0,0,0-.609-2.265c-1.953-.3-6.341-1.062-6.441-3.029a1,1,0,0,1,.835-1.047c6.554-1.076,9.5-7.8,9.625-8.082,0-.014.014-.028.028-.042a2.117,2.117,0,0,0,.226-1.769c-.481-1.118-2.534-1.515-3.4-1.868-2.236-.878-2.548-1.9-2.406-2.59a2.422,2.422,0,0,1,3.1-1.458,5.333,5.333,0,0,0,2.222.595,1.984,1.984,0,0,0,.934-.2c-.2-3.383-.665-8.21.538-10.913a12.854,12.854,0,0,1,11.9-7.686c.085,0,.863-.014.948-.014a12.74,12.74,0,0,1,11.933,7.686c1.2,2.7.736,7.516.538,10.913a1.78,1.78,0,0,0,.807.2,5.585,5.585,0,0,0,2.081-.595,2.586,2.586,0,0,1,1.925,0,1.97,1.97,0,0,1,1.472,1.684c.014.92-.807,1.713-2.435,2.35-.2.085-.439.156-.694.241-.92.3-2.321.736-2.689,1.628a2.171,2.171,0,0,0,.226,1.769c.014.014.014.028.028.042.127.283,3.072,7.007,9.625,8.082a1.087,1.087,0,0,1,.694,1.529Z" transform="translate(0 -32)"/>
</svg>
