<svg xmlns="http://www.w3.org/2000/svg" width="63.414" height="63.414" viewBox="0 0 63.414 63.414">
  <path id="snapchat" d="M31.707,8A31.707,31.707,0,1,0,63.414,39.707,31.7,31.7,0,0,0,31.707,8ZM53.378,51.329c-.447,1.036-2.314,1.79-5.728,2.327a15.713,15.713,0,0,0-.55,2.033.985.985,0,0,1-1.036.754h-.026c-.793,0-1.636-.371-3.3-.371-2.25,0-3.03.511-4.782,1.752-1.854,1.317-3.631,2.442-6.29,2.327-2.685.2-4.935-1.432-6.2-2.327-1.764-1.24-2.531-1.752-4.782-1.752a32.591,32.591,0,0,0-3.3.4,1.015,1.015,0,0,1-1.061-.767,16.051,16.051,0,0,0-.55-2.046c-1.764-.268-5.728-.959-5.817-2.736a.9.9,0,0,1,.754-.946c5.92-.972,8.579-7.045,8.694-7.3,0-.013.013-.026.026-.038a1.912,1.912,0,0,0,.2-1.6c-.435-1.01-2.289-1.368-3.068-1.688-2.02-.793-2.3-1.713-2.173-2.34a2.187,2.187,0,0,1,2.8-1.317,4.817,4.817,0,0,0,2.007.537,1.792,1.792,0,0,0,.844-.179c-.179-3.056-.6-7.415.486-9.857a11.61,11.61,0,0,1,10.752-6.942c.077,0,.78-.013.857-.013A11.507,11.507,0,0,1,42.92,26.18c1.087,2.442.665,6.789.486,9.857a1.608,1.608,0,0,0,.729.179,5.044,5.044,0,0,0,1.879-.537,2.336,2.336,0,0,1,1.739,0,1.779,1.779,0,0,1,1.33,1.521c.013.831-.729,1.547-2.2,2.122-.179.077-.4.141-.626.217-.831.268-2.1.665-2.429,1.47a1.961,1.961,0,0,0,.2,1.6c.013.013.013.026.026.038.115.256,2.774,6.329,8.694,7.3a.982.982,0,0,1,.626,1.381Z" transform="translate(0 -8)"/>
</svg>
