<svg xmlns="http://www.w3.org/2000/svg" width="60.261" height="56.652" viewBox="0 0 60.261 56.652">
  <path id="snapchat-ghost" d="M60.123,59.743c-.613,1.431-3.206,2.482-7.928,3.215a22.075,22.075,0,0,0-.766,2.82A1.363,1.363,0,0,1,50,66.822h-.035c-1.106,0-2.26-.509-4.573-.509-3.121,0-4.2.711-6.621,2.423-2.57,1.817-5.034,3.385-8.713,3.225-3.725.275-6.829-1.99-8.577-3.225-2.438-1.723-3.511-2.422-6.619-2.422a44.454,44.454,0,0,0-4.573.556A1.4,1.4,0,0,1,8.829,65.8a21.8,21.8,0,0,0-.768-2.84C5.628,62.587.139,61.629,0,59.18a1.251,1.251,0,0,1,1.045-1.3c8.19-1.348,11.879-9.757,12.032-10.114.009-.021.018-.04.028-.061a2.675,2.675,0,0,0,.29-2.207c-.594-1.4-3.163-1.9-4.243-2.33-2.791-1.1-3.18-2.369-3.014-3.237.287-1.511,2.557-2.44,3.884-1.819a6.735,6.735,0,0,0,2.771.741,2.4,2.4,0,0,0,1.172-.256c-.24-4.23-.836-10.274.669-13.649a16.035,16.035,0,0,1,14.886-9.6c.111,0,1.076-.01,1.19-.01A15.925,15.925,0,0,1,45.625,24.94c1.5,3.372.912,9.391.67,13.654a2.306,2.306,0,0,0,1.012.252,7.031,7.031,0,0,0,2.6-.736,3.186,3.186,0,0,1,2.41.007h0a2.445,2.445,0,0,1,1.835,2.1c.022,1.147-1,2.138-3.046,2.945-.249.1-.552.195-.875.3-1.153.366-2.9.919-3.368,2.033a2.673,2.673,0,0,0,.29,2.207c.01.02.02.04.028.061.153.357,3.839,8.764,12.032,10.114A1.285,1.285,0,0,1,60.123,59.743Z" transform="translate(0.002 -15.331)"/>
</svg>
