<svg xmlns="http://www.w3.org/2000/svg" width="64.733" height="64.733" viewBox="0 0 64.733 64.733">
  <path id="twitter-square" d="M57.8,32H6.936A6.937,6.937,0,0,0,0,38.936V89.8a6.937,6.937,0,0,0,6.936,6.936H57.8A6.937,6.937,0,0,0,64.733,89.8V38.936A6.937,6.937,0,0,0,57.8,32ZM50.732,54.946c.029.4.029.824.029,1.228,0,12.528-9.537,26.962-26.962,26.962a26.838,26.838,0,0,1-14.55-4.248A19.963,19.963,0,0,0,11.531,79a19,19,0,0,0,11.762-4.046,9.489,9.489,0,0,1-8.857-6.574,10.214,10.214,0,0,0,4.277-.173A9.477,9.477,0,0,1,11.126,58.9v-.116a9.47,9.47,0,0,0,4.277,1.2A9.457,9.457,0,0,1,11.184,52.1a9.358,9.358,0,0,1,1.286-4.783,26.908,26.908,0,0,0,19.535,9.912,9.5,9.5,0,0,1,16.169-8.655,18.57,18.57,0,0,0,6.011-2.283,9.452,9.452,0,0,1-4.161,5.216,18.859,18.859,0,0,0,5.462-1.474A19.947,19.947,0,0,1,50.732,54.946Z" transform="translate(0 -32)"/>
</svg>
