<svg xmlns="http://www.w3.org/2000/svg" width="50.888" height="41.33" viewBox="0 0 50.888 41.33">
  <path id="twitter" d="M45.657,58.382c.032.452.032.9.032,1.356,0,13.788-10.494,29.674-29.674,29.674A29.473,29.473,0,0,1,0,84.731a21.575,21.575,0,0,0,2.519.129A20.887,20.887,0,0,0,15.467,80.4a10.448,10.448,0,0,1-9.751-7.233,13.153,13.153,0,0,0,1.97.161,11.03,11.03,0,0,0,2.745-.355A10.431,10.431,0,0,1,2.066,62.741v-.129a10.5,10.5,0,0,0,4.714,1.324A10.445,10.445,0,0,1,3.552,49.987,29.645,29.645,0,0,0,25.056,60.9a11.774,11.774,0,0,1-.258-2.389,10.439,10.439,0,0,1,18.05-7.136,20.534,20.534,0,0,0,6.619-2.519A10.4,10.4,0,0,1,44.882,54.6a20.908,20.908,0,0,0,6.006-1.614,22.419,22.419,0,0,1-5.231,5.392Z" transform="translate(0 -48.082)"/>
</svg>
