<svg xmlns="http://www.w3.org/2000/svg" width="65.74" height="65.74" viewBox="0 0 65.74 65.74">
  <path id="youtube-square" d="M27.411,56.961,41.381,64.9l-13.97,7.939ZM65.74,39.044V90.7A7.045,7.045,0,0,1,58.7,97.74H7.044A7.045,7.045,0,0,1,0,90.7V39.044A7.045,7.045,0,0,1,7.044,32H58.7A7.045,7.045,0,0,1,65.74,39.044Zm-6.163,25.87s0-8.746-1.115-12.943a6.7,6.7,0,0,0-4.725-4.754c-4.153-1.13-20.866-1.13-20.866-1.13s-16.714,0-20.866,1.13a6.7,6.7,0,0,0-4.725,4.754C6.163,56.153,6.163,64.914,6.163,64.914s0,8.746,1.115,12.943A6.6,6.6,0,0,0,12,82.537c4.153,1.115,20.866,1.115,20.866,1.115s16.714,0,20.866-1.13a6.6,6.6,0,0,0,4.725-4.681C59.577,73.66,59.577,64.914,59.577,64.914Z" transform="translate(0 -32)"/>
</svg>
