<svg xmlns="http://www.w3.org/2000/svg" width="67.159" height="47.221" viewBox="0 0 67.159 47.221">
  <path id="youtube" d="M80.688,71.388a8.439,8.439,0,0,0-5.938-5.976C69.513,64,48.512,64,48.512,64s-21,0-26.238,1.412a8.439,8.439,0,0,0-5.938,5.976c-1.4,5.271-1.4,16.27-1.4,16.27s0,11,1.4,16.27a8.313,8.313,0,0,0,5.938,5.881c5.237,1.412,26.238,1.412,26.238,1.412s21,0,26.238-1.412a8.313,8.313,0,0,0,5.938-5.881c1.4-5.271,1.4-16.27,1.4-16.27S82.092,76.66,80.688,71.388ZM41.644,97.644V77.673L59.2,87.658Z" transform="translate(-14.933 -64)"/>
</svg>
